<svg xmlns="http://www.w3.org/2000/svg" viewBox="0 0 1920 600" width="1920" height="600" preserveAspectRatio="xMidYMid slice">
  <defs>
    <linearGradient id="sky" x1="0" y1="0" x2="0" y2="1">
      <stop offset="0%" stop-color="#87CEEB"/>
      <stop offset="100%" stop-color="#b8d4e8"/>
    </linearGradient>
    <linearGradient id="building" x1="0" y1="0" x2="1" y2="1">
      <stop offset="0%" stop-color="#4a6fa5"/>
      <stop offset="100%" stop-color="#2c5282"/>
    </linearGradient>
  </defs>
  <rect width="1920" height="600" fill="url(#sky)"/>
  <rect x="200" y="120" width="500" height="380" fill="url(#building)" opacity="0.9"/>
  <rect x="220" y="150" width="60" height="40" fill="#90cdf4" opacity="0.7"/>
  <rect x="300" y="150" width="60" height="40" fill="#90cdf4" opacity="0.7"/>
  <rect x="380" y="150" width="60" height="40" fill="#90cdf4" opacity="0.7"/>
  <rect x="460" y="150" width="60" height="40" fill="#90cdf4" opacity="0.7"/>
  <rect x="540" y="150" width="60" height="40" fill="#90cdf4" opacity="0.7"/>
  <rect x="220" y="210" width="60" height="40" fill="#90cdf4" opacity="0.7"/>
  <rect x="300" y="210" width="60" height="40" fill="#90cdf4" opacity="0.7"/>
  <rect x="380" y="210" width="60" height="40" fill="#90cdf4" opacity="0.7"/>
  <rect x="460" y="210" width="60" height="40" fill="#90cdf4" opacity="0.7"/>
  <rect x="540" y="210" width="60" height="40" fill="#90cdf4" opacity="0.7"/>
  <rect x="220" y="270" width="60" height="40" fill="#90cdf4" opacity="0.7"/>
  <rect x="300" y="270" width="60" height="40" fill="#90cdf4" opacity="0.7"/>
  <rect x="380" y="270" width="60" height="40" fill="#90cdf4" opacity="0.7"/>
  <rect x="460" y="270" width="60" height="40" fill="#90cdf4" opacity="0.7"/>
  <rect x="540" y="270" width="60" height="40" fill="#90cdf4" opacity="0.7"/>
  <rect x="350" y="420" width="80" height="80" fill="#1a365d"/>
  <rect x="750" y="80" width="600" height="420" fill="url(#building)" opacity="0.85"/>
  <rect x="1400" y="200" width="350" height="300" fill="url(#building)" opacity="0.8"/>
  <text x="960" y="560" text-anchor="middle" fill="#2d3748" font-family="Arial, sans-serif" font-size="18" opacity="0.5">Remplacez par immeuble_sonabel.jpg</text>
</svg>
